# xmcd CD database file
#
# Track frame offsets:
#	150
#	15782
#	34120
#	51542
#	63250
#	78310
#	93482
#	104787
#	122145
#	142655
#
# Disc length: 2138 seconds
#
# Revision: 0
# Processed by: cddbd v1.5.1PL0 Copyright (c) Steve Scherf et al.
# Submitted via: CDex 1.51
#
DISCID=7d08580a
DTITLE=Nathaniel Mayer - I Just Want To Be Held
DYEAR=2004
DGENRE=Blues
TTITLE0=I Wanna Dance With You
TTITLE1=I Found Out
TTITLE2=Satisfied Foll
TTITLE3=I'm In Love
TTITLE4=Leave Me Alone
TTITLE5=You Gotta Work
TTITLE6=From Now On
TTITLE7=Stick It or Lick It
TTITLE8=You Are The One
TTITLE9=What's Your Name
EXTD=YEAR: 2004
EXTT0=
EXTT1=
EXTT2=
EXTT3=
EXTT4=
EXTT5=
EXTT6=
EXTT7=
EXTT8=
EXTT9=
PLAYORDER=
